# xmcd CD database file
#
# Track frame offsets:
#	150
#	39718
#	68898
#	105556
#	136908
#	163819
#	189710
#	230380
#
# Disc length: 3287 seconds
#
# Revision: 0
# Processed by: cddbd v1.5.2PL0 Copyright (c) Steve Scherf et al.
# Submitted via: CDex 1.70beta2
#
DISCID=6c0cd508
DTITLE=Stan Getz and Gerry Mulligan - Stan Getz meets Gerry Mulligan
DYEAR=1900
DGENRE=Jazz
TTITLE0=This can't be love
TTITLE1=Let's fall in love
TTITLE2=Scrapple frome the apple
TTITLE3=Too close for comfort
TTITLE4=That old feeling
TTITLE5=A ballad
TTITLE6=I didn't know what time it was
TTITLE7=Anything goes
EXTD=
EXTT0=
EXTT1=
EXTT2=
EXTT3=
EXTT4=
EXTT5=
EXTT6=
EXTT7=
PLAYORDER=
